<?xml version="1.0" encoding="UTF-8"?>
<svg id="Layer_2" data-name="Layer 2" xmlns="http://www.w3.org/2000/svg" viewBox="0 0 208.59 214.9">
  <defs>
    <style>
      .cls-1 {
        fill: #600807;
      }
    </style>
  </defs>
  <g id="Layer_1-2" data-name="Layer 1">
    <path class="cls-1" d="M66.37,126.72c3.26,27.73,6.52,55.46,9.87,83.95-5.69-2.37-10.94-4.25-15.91-6.69-19.09-9.37-34.07-23.28-45.16-41.43-1.02-1.66-1.04-2.94-.23-4.69,11.28-24.32,22.47-48.67,33.68-73.01.27-.59.48-1.22.27-2.13-14.74,18-29.48,36-44.22,53.99-.25,0-.51-.02-.76-.03-.95-4.73-2.12-9.44-2.82-14.21-1.99-13.59-1.2-27.07,1.91-40.44.49-2.12,1.39-3.63,3.32-4.86,18.53-11.85,37-23.8,55.48-35.73.34-.22.64-.49.73-1.26-16.21,5.05-32.43,10.09-48.64,15.14-.21-.2-.42-.4-.63-.6,3.76-5.27,7.28-10.72,11.33-15.76,8.26-10.3,18.28-18.63,29.81-25.08,1.35-.75,3.06-1.22,4.59-1.21,18.91.15,37.83.41,56.74.63,1.36.02,2.72,0,4.08,0,.05-.21.1-.43.15-.64-10.51-3.55-21.01-7.1-31.52-10.65,23.65-4.52,46.1-1.31,67.68,9.5-4.91,10.1-9.71,19.96-14.66,30.13,2.04,1.34,4.01,2.65,6,3.93,6.64,4.3,13.31,8.53,19.89,12.92,1.03.69,1.95,1.93,2.35,3.11,1.48,4.39,2.6,8.91,4.14,13.28.56,1.58,1.7,3.17,3,4.23,10.32,8.42,20.74,16.72,31.14,25.05.26.21.59.34.61,1.01-6.01-.46-12.02-.92-18.6-1.43.65.92.94,1.47,1.36,1.92,3.74,4.03,7.43,8.12,11.29,12.03,1.39,1.41,1.5,2.61.71,4.3-1.41,3.04-2.51,6.22-4.02,9.21-.53,1.04-1.74,2.12-2.85,2.43-12.33,3.42-24.7,6.69-37.06,10.01-.55.15-1.08.4-1.58,1.22,11.42.37,22.83.75,34.77,1.14-3.39,7.74-6.67,15.22-10.02,22.86-14.96-4.87-29.71-9.68-44.86-14.61,3.69-2.79,7.03-5.44,10.52-7.9,1.63-1.15,2.01-2.08.99-3.96-2.93-5.35-5.56-10.86-8.47-16.22-.45-.83-1.74-1.63-2.69-1.69-5.15-.32-10.31-.35-15.46-.61-1.12-.06-2.39-.42-3.3-1.05-7.43-5.13-14.82-10.3-22.12-15.61-.79-.58-1.37-2.16-1.25-3.18,1.16-10.33,2.48-20.64,3.77-30.95.73-5.88,1.49-11.76,2.21-17.64.03-.29-.08-.59-.62-.99-1.08,3.11-2.16,6.23-3.25,9.34-5.04,14.43-10.05,28.87-15.17,43.27-.65,1.83-.28,2.91.96,4.29,25.78,28.72,51.5,57.49,77.23,86.26.51.56.99,1.15,2,2.3-6.13,2.81-11.83,5.74-17.77,8.08-12.45,4.9-25.46,6.98-38.84,6.94-1.92,0-2.85-.61-3.6-2.42-11.68-28.17-23.45-56.3-35.21-84.44-.21-.51-.49-.99-.74-1.48l-.52.15ZM130.45,64.05c-.05.24-.1.47-.15.71,10.84,6.3,21.68,12.61,32.95,19.16-.14-1.18-.15-1.84-.31-2.46-1.13-4.48-2.39-8.94-3.4-13.45-.4-1.82-1.32-2.29-3.01-2.36-4.28-.19-8.55-.57-12.83-.83-4.42-.28-8.83-.51-13.25-.76"/>
  </g>
</svg>