<?xml version="1.0" encoding="UTF-8"?>
<svg id="Layer_2" data-name="Layer 2" xmlns="http://www.w3.org/2000/svg" viewBox="0 0 695.6 214.9">
  <defs>
    <style>
      .cls-1 {
        fill: #600807;
      }
    </style>
  </defs>
  <g id="Layer_1-2" data-name="Layer 1">
    <g>
      <path class="cls-1" d="M229.49,181.86l11.43-11.64c3.47,4.39,9.9,7.66,15.62,7.66,5.31,0,10.01-2.04,10.01-7.86,0-5.51-5.51-7.25-15.01-10.31-9.19-2.96-18.48-7.66-18.48-20.72,0-16.03,14.5-22.66,27.97-22.66,8.17,0,17.35,3.06,23.68,8.88l-11.13,11.74c-2.96-3.78-8.37-6.23-12.86-6.23s-10.11,1.53-10.11,7.25c0,4.8,4.29,6.43,11.13,8.47,9.9,2.96,22.46,7.35,22.46,21.74,0,16.64-13.37,24.09-27.67,24.09-10.31,0-20.72-3.78-27.05-10.41"/>
      <path class="cls-1" d="M292.36,153.99c0-23.17,16.74-37.77,39.3-37.77s39.4,14.6,39.4,37.77-16.74,38.38-39.4,38.38-39.3-15.52-39.3-38.38M352.39,153.99c0-12.66-8.47-22.05-20.72-22.05s-20.62,9.39-20.62,22.05,8.47,22.46,20.62,22.46,20.72-9.39,20.72-22.46"/>
      <polygon class="cls-1" points="382.6 190.44 382.6 118.16 400.16 118.16 400.16 175.23 428.13 175.23 428.13 190.44 382.6 190.44"/>
      <polygon class="cls-1" points="470.7 118.16 491.11 118.16 463.35 159.81 463.35 190.44 445.89 190.44 445.89 159.81 418.74 118.16 439.87 118.16 455.28 145.01 470.7 118.16"/>
      <polygon class="cls-1" points="514.89 190.44 487.54 118.16 507.14 118.16 523.88 169.41 524.28 169.41 540.92 118.16 560.22 118.16 532.35 190.44 514.89 190.44"/>
      <polygon class="cls-1" points="566.13 190.44 566.13 118.16 614.73 118.16 614.73 132.96 582.98 132.96 582.98 146.54 612.99 146.54 612.99 160.53 582.98 160.53 582.98 175.53 616.56 175.53 616.56 190.44 566.13 190.44"/>
      <polygon class="cls-1" points="628.1 190.44 628.1 118.16 648 118.16 676.99 165.33 677.3 165.33 676.89 118.16 693.84 118.16 693.84 190.44 674.03 190.44 644.94 143.17 644.63 143.17 645.04 190.44 628.1 190.44"/>
      <path class="cls-1" d="M234.51,83.44l8.78-8.93c2.66,3.37,7.6,5.88,11.99,5.88,4.07,0,7.68-1.57,7.68-6.03,0-4.23-4.23-5.56-11.52-7.91-7.05-2.27-14.18-5.88-14.18-15.91,0-12.3,11.13-17.4,21.47-17.4,6.27,0,13.32,2.35,18.18,6.82l-8.54,9.01c-2.27-2.9-6.42-4.78-9.87-4.78s-7.76,1.17-7.76,5.56c0,3.68,3.29,4.94,8.54,6.5,7.6,2.27,17.24,5.64,17.24,16.69,0,12.77-10.27,18.49-21.23,18.49-7.91,0-15.91-2.9-20.76-7.99"/>
      <polygon class="cls-1" points="285.37 90.03 285.37 34.55 322.66 34.55 322.66 45.91 298.3 45.91 298.3 56.33 321.33 56.33 321.33 67.07 298.3 67.07 298.3 78.59 324.07 78.59 324.07 90.03 285.37 90.03"/>
      <path class="cls-1" d="M330.35,62.21c0-17.79,13.16-29.15,30.09-29.15,8.7,0,16.77,2.9,21.39,7.36l-8.46,9.64c-2.59-2.98-7.05-5.17-12.46-5.17-9.4,0-16.3,7.37-16.3,17.32s6.03,17.47,16.92,17.47c3.13,0,6.03-.47,8.38-1.49v-10.11h-10.58v-10.81h22.88v29.38c-5.41,2.82-12.85,4.78-21.39,4.78-17.71,0-30.48-11.75-30.48-29.23"/>
      <path class="cls-1" d="M392.65,69.1v-34.55h13.32v33.46c0,5.96,2.9,11.44,10.42,11.44s10.42-5.48,10.42-11.44v-33.46h13.4v34.55c0,13.32-9.4,22.41-23.9,22.41s-23.66-9.09-23.66-22.41"/>
      <path class="cls-1" d="M451.03,90.03v-55.48h21.16c10.66,0,21.23,4.07,21.23,16.77,0,7.44-4.39,12.77-11.52,14.97l14.49,23.74h-15.67l-11.99-22.02h-4.54v22.02h-13.16ZM464.11,58.29h6.35c4.31,0,9.72-1.1,9.72-6.74,0-5.17-4.94-6.19-8.93-6.19h-7.13v12.93Z"/>
      <rect class="cls-1" x="502.98" y="34.55" width="13.48" height="55.48"/>
      <path class="cls-1" d="M527.9,90.03v-55.48h20.06c15.75,0,31.73,6.58,31.73,27.58,0,19.51-15.83,27.9-31.11,27.9h-20.69ZM540.99,78.43h6.35c9.56,0,18.41-3.92,18.41-16.3s-8.85-16.14-18.1-16.14h-6.66v32.44Z"/>
      <path class="cls-1" d="M616.14,34.55l23.04,55.48h-14.89l-4.31-10.89h-21.47l-4.08,10.89h-14.57l23.27-55.48h13.01ZM602.35,68.4h13.95l-6.9-19.04-7.05,19.04Z"/>
      <path class="cls-1" d="M643.8,90.03v-55.48h20.06c15.75,0,31.73,6.58,31.73,27.58,0,19.51-15.83,27.9-31.11,27.9h-20.69ZM656.89,78.43h6.35c9.56,0,18.41-3.92,18.41-16.3s-8.85-16.14-18.1-16.14h-6.66v32.44Z"/>
      <path class="cls-1" d="M66.37,126.72c3.26,27.73,6.52,55.46,9.87,83.95-5.69-2.37-10.94-4.25-15.91-6.69-19.09-9.37-34.07-23.28-45.16-41.43-1.02-1.66-1.04-2.94-.23-4.69,11.28-24.32,22.47-48.67,33.68-73.01.27-.59.48-1.22.27-2.13-14.74,18-29.48,36-44.22,53.99-.25,0-.51-.02-.76-.03-.95-4.73-2.12-9.44-2.82-14.21-1.99-13.59-1.2-27.07,1.91-40.44.49-2.12,1.39-3.63,3.32-4.86,18.53-11.85,37-23.8,55.48-35.73.34-.22.64-.49.73-1.26-16.21,5.05-32.43,10.09-48.64,15.14-.21-.2-.42-.4-.63-.6,3.76-5.27,7.28-10.72,11.33-15.76,8.26-10.3,18.28-18.63,29.81-25.08,1.35-.75,3.06-1.22,4.59-1.21,18.91.15,37.83.41,56.74.63,1.36.02,2.72,0,4.08,0,.05-.21.1-.43.15-.64-10.51-3.55-21.01-7.1-31.52-10.65,23.65-4.52,46.1-1.31,67.68,9.5-4.91,10.1-9.71,19.96-14.66,30.13,2.04,1.34,4.01,2.65,6,3.93,6.64,4.3,13.31,8.53,19.89,12.92,1.03.69,1.95,1.93,2.35,3.11,1.48,4.39,2.6,8.91,4.14,13.28.56,1.58,1.7,3.17,3,4.23,10.32,8.42,20.74,16.72,31.14,25.05.26.21.59.34.61,1.01-6.01-.46-12.02-.92-18.6-1.43.65.92.94,1.47,1.36,1.92,3.74,4.03,7.43,8.12,11.29,12.03,1.39,1.41,1.5,2.61.71,4.3-1.41,3.04-2.51,6.22-4.02,9.21-.53,1.04-1.74,2.12-2.85,2.43-12.33,3.42-24.7,6.69-37.06,10.01-.55.15-1.08.4-1.58,1.22,11.42.37,22.83.75,34.77,1.14-3.39,7.74-6.67,15.22-10.02,22.86-14.96-4.87-29.71-9.68-44.86-14.61,3.69-2.79,7.03-5.44,10.52-7.9,1.63-1.15,2.01-2.08.99-3.96-2.93-5.35-5.56-10.86-8.47-16.22-.45-.83-1.74-1.63-2.69-1.69-5.15-.32-10.31-.35-15.46-.61-1.12-.06-2.39-.42-3.3-1.05-7.43-5.13-14.82-10.3-22.12-15.61-.79-.58-1.37-2.16-1.25-3.18,1.16-10.33,2.48-20.64,3.77-30.95.73-5.88,1.49-11.76,2.21-17.64.03-.29-.08-.59-.62-.99-1.08,3.11-2.16,6.23-3.25,9.34-5.04,14.43-10.05,28.87-15.17,43.27-.65,1.83-.28,2.91.96,4.29,25.78,28.72,51.5,57.49,77.23,86.26.51.56.99,1.15,2,2.3-6.13,2.81-11.83,5.74-17.77,8.08-12.45,4.9-25.46,6.98-38.84,6.94-1.92,0-2.85-.61-3.6-2.42-11.68-28.17-23.45-56.3-35.21-84.44-.21-.51-.49-.99-.74-1.48l-.52.15ZM130.45,64.05c-.05.24-.1.47-.15.71,10.84,6.3,21.68,12.61,32.95,19.16-.14-1.18-.15-1.84-.31-2.46-1.13-4.48-2.39-8.94-3.4-13.45-.4-1.82-1.32-2.29-3.01-2.36-4.28-.19-8.55-.57-12.83-.83-4.42-.28-8.83-.51-13.25-.76"/>
    </g>
  </g>
</svg>